# xmcd CD database file
#
# Track frame offsets:
#	187
#	16875
#	53499
#	66196
#	95373
#	113506
#	140112
#	152522
#	174152
#
# Disc length: 2762 seconds
#
# Revision: 0
# Processed by: cddbd v1.5.2PL0 Copyright (c) Steve Scherf et al.
# Submitted via: CDex 1.51
#
DISCID=650ac809
DTITLE=Bob Garcia, Alain Jean Marie, Ricardo Del Fra - Isn't It Romantic ?
DYEAR=1999
DGENRE=Jazz
TTITLE0=Nancy
TTITLE1=Body and Soul
TTITLE2=Star Fells On Alabama
TTITLE3=If I Should Care
TTITLE4=Isn't It Romantic ?
TTITLE5=Darn That Dream
TTITLE6=La belle Vie - Si jolie
TTITLE7=Time After Time
TTITLE8=These Foolish Things
EXTD=YEAR: 1999
EXTT0=
EXTT1=
EXTT2=
EXTT3=
EXTT4=
EXTT5=
EXTT6=
EXTT7=
EXTT8=
PLAYORDER=
